ISO-10303-21;
HEADER;
FILE_DESCRIPTION (( 'STEP AP214' ),
    '1' );
FILE_NAME ('LED iPoster - Base.STEP',
    '2025-09-11T15:58:03',
    ( '' ),
    ( '' ),
    'SwSTEP 2.0',
    'SolidWorks 2025',
    '' );
FILE_SCHEMA (( 'AUTOMOTIVE_DESIGN' ));
ENDSEC;

DATA;
#1 = EDGE_CURVE ( 'NONE', #142, #70, #64, .T. ) ;
#2 = CARTESIAN_POINT ( 'NONE',  ( 0.000000000000000000, 0.2500000000000000000, 0.000000000000000000 ) ) ;
#3 = EDGE_LOOP ( 'NONE', ( #357, #182, #40, #233 ) ) ;
#4 = CARTESIAN_POINT ( 'NONE',  ( -12.53999999999999737, 0.2500000000000000000, 9.390000000000002345 ) ) ;
#5 = VERTEX_POINT ( 'NONE', #100 ) ;
#6 = DIRECTION ( 'NONE',  ( 0.000000000000000000, -0.000000000000000000, 1.000000000000000000 ) ) ;
#7 = VECTOR ( 'NONE', #246, 39.37007874015748854 ) ;
#8 = LINE ( 'NONE', #44, #195 ) ;
#9 = CARTESIAN_POINT ( 'NONE',  ( 12.54000000000000092, 0.2500000000000000000, 9.390000000000002345 ) ) ;
#10 = ADVANCED_FACE ( 'NONE', ( #375 ), #167, .F. ) ;
#11 = PRODUCT_DEFINITION ( 'UNKNOWN', '', #381, #206 ) ;
#12 = DIRECTION ( 'NONE',  ( -0.8635486968584779044, -0.000000000000000000, -0.5042654540557228726 ) ) ;
#13 = VERTEX_POINT ( 'NONE', #297 ) ;
#14 = AXIS2_PLACEMENT_3D ( 'NONE', #390, #216, #213 ) ;
#15 = VECTOR ( 'NONE', #144, 39.37007874015748143 ) ;
#16 = DIRECTION ( 'NONE',  ( -0.000000000000000000, -1.000000000000000000, -0.000000000000000000 ) ) ;
#17 = ORIENTED_EDGE ( 'NONE', *, *, #68, .F. ) ;
#18 = LINE ( 'NONE', #114, #145 ) ;
#19 = EDGE_LOOP ( 'NONE', ( #221, #430, #98, #165 ) ) ;
#20 = MECHANICAL_DESIGN_GEOMETRIC_PRESENTATION_REPRESENTATION (  '', ( #238 ), #298 ) ;
#21 = LINE ( 'NONE', #374, #436 ) ;
#22 = DIRECTION ( 'NONE',  ( 1.000000000000000000, 0.000000000000000000, 0.000000000000000000 ) ) ;
#23 = EDGE_CURVE ( 'NONE', #333, #27, #191, .T. ) ;
#24 = AXIS2_PLACEMENT_3D ( 'NONE', #358, #154, #354 ) ;
#25 = FILL_AREA_STYLE_COLOUR ( '', #245 ) ;
#26 = LINE ( 'NONE', #129, #95 ) ;
#27 = VERTEX_POINT ( 'NONE', #127 ) ;
#28 = PRESENTATION_LAYER_ASSIGNMENT (  '', '', ( #238 ) ) ;
#29 = CARTESIAN_POINT ( 'NONE',  ( 7.030000000000001137, 0.000000000000000000, 9.390000000000002345 ) ) ;
#30 = EDGE_LOOP ( 'NONE', ( #226, #193, #57, #329, #386, #163, #443, #270, #446, #278, #285, #400 ) ) ;
#31 = VECTOR ( 'NONE', #320, 39.37007874015748143 ) ;
#32 = DIRECTION ( 'NONE',  ( 0.000000000000000000, 0.000000000000000000, -1.000000000000000000 ) ) ;
#33 = ORIENTED_EDGE ( 'NONE', *, *, #335, .F. ) ;
#34 = ADVANCED_BREP_SHAPE_REPRESENTATION ( 'LED iPoster - Base', ( #434, #282 ), #169 ) ;
#35 = CARTESIAN_POINT ( 'NONE',  ( -12.53999999999999737, 0.2500000000000000000, 9.390000000000002345 ) ) ;
#36 = FACE_OUTER_BOUND ( 'NONE', #398, .T. ) ;
#37 = EDGE_CURVE ( 'NONE', #435, #189, #259, .T. ) ;
#38 = CARTESIAN_POINT ( 'NONE',  ( 7.030000000000001137, 0.2500000000000000000, 9.390000000000002345 ) ) ;
#39 = PLANE ( 'NONE',  #205 ) ;
#40 = ORIENTED_EDGE ( 'NONE', *, *, #401, .F. ) ;
#41 = APPLICATION_PROTOCOL_DEFINITION ( 'draft international standard', 'automotive_design', 1998, #262 ) ;
#42 = CARTESIAN_POINT ( 'NONE',  ( -12.53999999999999737, 0.000000000000000000, 9.390000000000002345 ) ) ;
#43 = CARTESIAN_POINT ( 'NONE',  ( 12.54000000000000092, 0.2500000000000000000, -9.389999999999998792 ) ) ;
#44 = CARTESIAN_POINT ( 'NONE',  ( 4.529999999999996696, 0.000000000000000000, 7.930136022756444802 ) ) ;
#45 = CARTESIAN_POINT ( 'NONE',  ( 4.529999999999996696, 0.2500000000000000000, -7.930136022756449243 ) ) ;
#46 = ORIENTED_EDGE ( 'NONE', *, *, #334, .F. ) ;
#47 = EDGE_CURVE ( 'NONE', #340, #142, #26, .T. ) ;
#48 = DIRECTION ( 'NONE',  ( 0.8635486968584780154, 0.000000000000000000, 0.5042654540557226506 ) ) ;
#49 = ORIENTED_EDGE ( 'NONE', *, *, #267, .F. ) ;
#50 = VECTOR ( 'NONE', #243, 39.37007874015748143 ) ;
#51 = PRODUCT_DEFINITION_SHAPE ( 'NONE', 'NONE',  #11 ) ;
#52 = CARTESIAN_POINT ( 'NONE',  ( -4.530000000000002913, 0.000000000000000000, 7.930136022756446579 ) ) ;
#53 = ORIENTED_EDGE ( 'NONE', *, *, #313, .F. ) ;
#54 = DIRECTION ( 'NONE',  ( 1.000000000000000000, 0.000000000000000000, -1.206113904487533598E-16 ) ) ;
#55 = ORIENTED_EDGE ( 'NONE', *, *, #1, .T. ) ;
#56 = CARTESIAN_POINT ( 'NONE',  ( 7.030000000000001137, 0.2500000000000000000, -9.389999999999998792 ) ) ;
#57 = ORIENTED_EDGE ( 'NONE', *, *, #78, .F. ) ;
#58 = DIRECTION ( 'NONE',  ( -1.000000000000000000, 0.000000000000000000, -0.000000000000000000 ) ) ;
#59 = ORIENTED_EDGE ( 'NONE', *, *, #355, .T. ) ;
#60 = CARTESIAN_POINT ( 'NONE',  ( 12.54000000000000092, 0.2500000000000000000, 9.390000000000002345 ) ) ;
#61 = CARTESIAN_POINT ( 'NONE',  ( -4.530000000000007354, 0.2500000000000000000, -7.930136022756448355 ) ) ;
#62 = AXIS2_PLACEMENT_3D ( 'NONE', #223, #367, #143 ) ;
#63 = PRESENTATION_STYLE_ASSIGNMENT (( #405 ) ) ;
#64 = LINE ( 'NONE', #342, #227 ) ;
#65 = AXIS2_PLACEMENT_3D ( 'NONE', #429, #119, #250 ) ;
#66 = FACE_OUTER_BOUND ( 'NONE', #209, .T. ) ;
#67 = SHAPE_DEFINITION_REPRESENTATION ( #51, #34 ) ;
#68 = EDGE_CURVE ( 'NONE', #203, #82, #196, .T. ) ;
#69 = LINE ( 'NONE', #387, #117 ) ;
#70 = VERTEX_POINT ( 'NONE', #372 ) ;
#71 = CARTESIAN_POINT ( 'NONE',  ( 12.54000000000000092, 0.000000000000000000, 9.390000000000002345 ) ) ;
#72 = VECTOR ( 'NONE', #207, 39.37007874015748143 ) ;
#73 = LINE ( 'NONE', #42, #72 ) ;
#74 = ADVANCED_FACE ( 'NONE', ( #419 ), #204, .T. ) ;
#75 = ORIENTED_EDGE ( 'NONE', *, *, #283, .F. ) ;
#76 = DIRECTION ( 'NONE',  ( 0.8635486968584774603, 0.000000000000000000, -0.5042654540557239828 ) ) ;
#77 = DIRECTION ( 'NONE',  ( -0.000000000000000000, -1.000000000000000000, -0.000000000000000000 ) ) ;
#78 = EDGE_CURVE ( 'NONE', #379, #87, #237, .T. ) ;
#79 = PLANE ( 'NONE',  #14 ) ;
#80 = CARTESIAN_POINT ( 'NONE',  ( 7.030000000000001137, 0.2500000000000000000, -9.389999999999998792 ) ) ;
#81 = EDGE_CURVE ( 'NONE', #224, #409, #280, .T. ) ;
#82 = VERTEX_POINT ( 'NONE', #4 ) ;
#83 = CARTESIAN_POINT ( 'NONE',  ( -4.530000000000007354, 0.2500000000000000000, -7.930136022756448355 ) ) ;
#84 = ORIENTED_EDGE ( 'NONE', *, *, #247, .T. ) ;
#85 = ADVANCED_FACE ( 'NONE', ( #457 ), #452, .F. ) ;
#86 = LINE ( 'NONE', #218, #7 ) ;
#87 = VERTEX_POINT ( 'NONE', #71 ) ;
#88 = ORIENTED_EDGE ( 'NONE', *, *, #396, .T. ) ;
#89 = FILL_AREA_STYLE ('',( #25 ) ) ;
#90 = DIRECTION ( 'NONE',  ( -0.000000000000000000, -1.000000000000000000, -0.000000000000000000 ) ) ;
#91 = DIMENSIONAL_EXPONENTS ( 1.000000000000000000, 0.000000000000000000, 0.000000000000000000, 0.000000000000000000, 0.000000000000000000, 0.000000000000000000, 0.000000000000000000 ) ;
#92 =( LENGTH_UNIT ( ) NAMED_UNIT ( * ) SI_UNIT ( $, .METRE. ) );
#93 = DIRECTION ( 'NONE',  ( -0.000000000000000000, -0.000000000000000000, 1.000000000000000000 ) ) ;
#94 = EDGE_CURVE ( 'NONE', #82, #350, #146, .T. ) ;
#95 = VECTOR ( 'NONE', #161, 39.37007874015748143 ) ;
#96 = EDGE_LOOP ( 'NONE', ( #432, #445, #46, #118 ) ) ;
#97 = EDGE_CURVE ( 'NONE', #350, #435, #69, .T. ) ;
#98 = ORIENTED_EDGE ( 'NONE', *, *, #47, .F. ) ;
#99 = DIRECTION ( 'NONE',  ( 0.000000000000000000, 0.000000000000000000, -1.000000000000000000 ) ) ;
#100 = CARTESIAN_POINT ( 'NONE',  ( -7.029999999999996696, 0.000000000000000000, 9.390000000000002345 ) ) ;
#101 = DIRECTION ( 'NONE',  ( 0.8635486968584774603, 0.000000000000000000, -0.5042654540557239828 ) ) ;
#102 = CARTESIAN_POINT ( 'NONE',  ( 7.030000000000001137, 0.2500000000000000000, 9.390000000000002345 ) ) ;
#103 = CARTESIAN_POINT ( 'NONE',  ( 0.000000000000000000, 0.000000000000000000, 0.000000000000000000 ) ) ;
#104 = CARTESIAN_POINT ( 'NONE',  ( 12.54000000000000092, 0.2500000000000000000, 9.390000000000002345 ) ) ;
#105 = APPLICATION_PROTOCOL_DEFINITION ( 'draft international standard', 'automotive_design', 1998, #389 ) ;
#106 = CARTESIAN_POINT ( 'NONE',  ( -12.53999999999999737, 0.000000000000000000, -9.389999999999998792 ) ) ;
#107 = CARTESIAN_POINT ( 'NONE',  ( -7.029999999999996696, 0.000000000000000000, -9.389999999999998792 ) ) ;
#108 = EDGE_CURVE ( 'NONE', #13, #217, #349, .T. ) ;
#109 = VERTEX_POINT ( 'NONE', #107 ) ;
#110 = VECTOR ( 'NONE', #383, 39.37007874015748143 ) ;
#111 = DIRECTION ( 'NONE',  ( 1.000000000000000000, 0.000000000000000000, 0.000000000000000000 ) ) ;
#112 = DIRECTION ( 'NONE',  ( 1.000000000000000000, -0.000000000000000000, 0.000000000000000000 ) ) ;
#113 = VECTOR ( 'NONE', #414, 39.37007874015748143 ) ;
#114 = CARTESIAN_POINT ( 'NONE',  ( -7.029999999999996696, 0.2500000000000000000, -9.389999999999998792 ) ) ;
#115 = ADVANCED_FACE ( 'NONE', ( #175 ), #39, .F. ) ;
#116 = DIRECTION ( 'NONE',  ( 0.8635486968584780154, 0.000000000000000000, 0.5042654540557226506 ) ) ;
#117 = VECTOR ( 'NONE', #76, 39.37007874015748143 ) ;
#118 = ORIENTED_EDGE ( 'NONE', *, *, #283, .T. ) ;
#119 = DIRECTION ( 'NONE',  ( 0.5042654540557204301, -0.000000000000000000, 0.8635486968584794587 ) ) ;
#120 = ORIENTED_EDGE ( 'NONE', *, *, #396, .F. ) ;
#121 = CARTESIAN_POINT ( 'NONE',  ( 4.529999999999996696, 0.000000000000000000, -7.930136022756449243 ) ) ;
#122 = ORIENTED_EDGE ( 'NONE', *, *, #94, .T. ) ;
#123 = EDGE_CURVE ( 'NONE', #350, #5, #315, .T. ) ;
#124 = CARTESIAN_POINT ( 'NONE',  ( -4.530000000000007354, 0.000000000000000000, -7.930136022756448355 ) ) ;
#125 = ORIENTED_EDGE ( 'NONE', *, *, #23, .F. ) ;
#126 = LINE ( 'NONE', #56, #456 ) ;
#127 = CARTESIAN_POINT ( 'NONE',  ( 12.54000000000000092, 0.2500000000000000000, 9.390000000000002345 ) ) ;
#128 = CARTESIAN_POINT ( 'NONE',  ( -4.530000000000002913, 0.2500000000000000000, 7.930136022756446579 ) ) ;
#129 = CARTESIAN_POINT ( 'NONE',  ( 4.529999999999996696, 0.2500000000000000000, -7.930136022756449243 ) ) ;
#130 = ADVANCED_FACE ( 'NONE', ( #424 ), #170, .F. ) ;
#131 = FACE_OUTER_BOUND ( 'NONE', #427, .T. ) ;
#132 = ORIENTED_EDGE ( 'NONE', *, *, #360, .T. ) ;
#133 = CARTESIAN_POINT ( 'NONE',  ( 7.030000000000001137, 0.2500000000000000000, -9.389999999999998792 ) ) ;
#134 = ORIENTED_EDGE ( 'NONE', *, *, #37, .F. ) ;
#135 = DIRECTION ( 'NONE',  ( 1.000000000000000000, 0.000000000000000000, -1.206113904487532858E-16 ) ) ;
#136 = DIRECTION ( 'NONE',  ( -0.000000000000000000, 1.000000000000000000, 0.000000000000000000 ) ) ;
#137 = VECTOR ( 'NONE', #275, 39.37007874015748143 ) ;
#138 = LENGTH_MEASURE_WITH_UNIT ( LENGTH_MEASURE( 0.02539999999999999897 ), #201 );
#139 = CARTESIAN_POINT ( 'NONE',  ( -7.029999999999996696, 0.2500000000000000000, 9.390000000000002345 ) ) ;
#140 = AXIS2_PLACEMENT_3D ( 'NONE', #411, #99, #58 ) ;
#141 = CARTESIAN_POINT ( 'NONE',  ( -4.530000000000007354, 0.000000000000000000, -7.930136022756448355 ) ) ;
#142 = VERTEX_POINT ( 'NONE', #277 ) ;
#143 = DIRECTION ( 'NONE',  ( 0.8635486968584779044, 0.000000000000000000, 0.5042654540557228726 ) ) ;
#144 = DIRECTION ( 'NONE',  ( -0.000000000000000000, -1.000000000000000000, -0.000000000000000000 ) ) ;
#145 = VECTOR ( 'NONE', #214, 39.37007874015748143 ) ;
#146 = LINE ( 'NONE', #35, #303 ) ;
#147 = CARTESIAN_POINT ( 'NONE',  ( -12.53999999999999737, 0.000000000000000000, 9.390000000000002345 ) ) ;
#148 = EDGE_CURVE ( 'NONE', #87, #409, #421, .T. ) ;
#149 = LINE ( 'NONE', #288, #255 ) ;
#150 = VERTEX_POINT ( 'NONE', #106 ) ;
#151 = VECTOR ( 'NONE', #12, 39.37007874015748854 ) ;
#152 = FACE_OUTER_BOUND ( 'NONE', #422, .T. ) ;
#153 = EDGE_LOOP ( 'NONE', ( #312, #33, #125, #229 ) ) ;
#154 = DIRECTION ( 'NONE',  ( -1.206113904487533598E-16, 0.000000000000000000, -1.000000000000000000 ) ) ;
#155 = EDGE_LOOP ( 'NONE', ( #337, #439, #158, #449 ) ) ;
#156 = CARTESIAN_POINT ( 'NONE',  ( -12.53999999999999737, 0.2500000000000000000, -9.389999999999998792 ) ) ;
#157 = ORIENTED_EDGE ( 'NONE', *, *, #23, .T. ) ;
#158 = ORIENTED_EDGE ( 'NONE', *, *, #94, .F. ) ;
#159 = EDGE_CURVE ( 'NONE', #230, #5, #73, .T. ) ;
#160 = DIRECTION ( 'NONE',  ( -0.000000000000000000, -1.000000000000000000, -0.000000000000000000 ) ) ;
#161 = DIRECTION ( 'NONE',  ( -0.8635486968584794587, -0.000000000000000000, 0.5042654540557204301 ) ) ;
#162 = ADVANCED_FACE ( 'NONE', ( #279 ), #417, .F. ) ;
#163 = ORIENTED_EDGE ( 'NONE', *, *, #453, .F. ) ;
#164 = LINE ( 'NONE', #128, #208 ) ;
#165 = ORIENTED_EDGE ( 'NONE', *, *, #418, .T. ) ;
#166 = CARTESIAN_POINT ( 'NONE',  ( -12.53999999999999737, 0.2500000000000000000, 9.390000000000002345 ) ) ;
#167 = PLANE ( 'NONE',  #331 ) ;
#168 = CARTESIAN_POINT ( 'NONE',  ( -12.53999999999999737, 0.2500000000000000000, -9.389999999999998792 ) ) ;
#169 =( GEOMETRIC_REPRESENTATION_CONTEXT ( 3 ) GLOBAL_UNCERTAINTY_ASSIGNED_CONTEXT ( ( #276 ) ) GLOBAL_UNIT_ASSIGNED_CONTEXT ( ( #272, #343, #242 ) ) REPRESENTATION_CONTEXT ( 'NONE', 'WORKASPACE' ) );
#170 = PLANE ( 'NONE',  #185 ) ;
#171 = VECTOR ( 'NONE', #281, 39.37007874015748143 ) ;
#172 = CARTESIAN_POINT ( 'NONE',  ( 12.54000000000000092, 0.2500000000000000000, -9.389999999999998792 ) ) ;
#173 = ADVANCED_FACE ( 'NONE', ( #36 ), #309, .F. ) ;
#174 = LINE ( 'NONE', #305, #366 ) ;
#175 = FACE_OUTER_BOUND ( 'NONE', #30, .T. ) ;
#176 = ORIENTED_EDGE ( 'NONE', *, *, #123, .T. ) ;
#177 = PRODUCT_CONTEXT ( 'NONE', #262, 'mechanical' ) ;
#178 = CARTESIAN_POINT ( 'NONE',  ( 4.529999999999996696, 0.2500000000000000000, 7.930136022756444802 ) ) ;
#179 = LINE ( 'NONE', #156, #294 ) ;
#180 = PLANE ( 'NONE',  #24 ) ;
#181 = FACE_OUTER_BOUND ( 'NONE', #3, .T. ) ;
#182 = ORIENTED_EDGE ( 'NONE', *, *, #360, .F. ) ;
#183 = ADVANCED_FACE ( 'NONE', ( #66 ), #200, .F. ) ;
#184 = CARTESIAN_POINT ( 'NONE',  ( 7.030000000000001137, 0.000000000000000000, -9.389999999999998792 ) ) ;
#185 = AXIS2_PLACEMENT_3D ( 'NONE', #239, #112, #210 ) ;
#186 = ORIENTED_EDGE ( 'NONE', *, *, #108, .T. ) ;
#187 = PRODUCT ( 'LED iPoster - Base', 'LED iPoster - Base', '', ( #177 ) ) ;
#188 = LINE ( 'NONE', #353, #455 ) ;
#189 = VERTEX_POINT ( 'NONE', #52 ) ;
#190 = DIRECTION ( 'NONE',  ( -0.5042654540557239828, 0.000000000000000000, -0.8635486968584774603 ) ) ;
#191 = LINE ( 'NONE', #102, #287 ) ;
#192 = PLANE ( 'NONE',  #140 ) ;
#193 = ORIENTED_EDGE ( 'NONE', *, *, #148, .F. ) ;
#194 = ADVANCED_FACE ( 'NONE', ( #181 ), #180, .F. ) ;
#195 = VECTOR ( 'NONE', #116, 39.37007874015748854 ) ;
#196 = LINE ( 'NONE', #406, #310 ) ;
#197 = DIRECTION ( 'NONE',  ( -0.000000000000000000, -0.000000000000000000, 1.000000000000000000 ) ) ;
#198 = ORIENTED_EDGE ( 'NONE', *, *, #97, .F. ) ;
#199 = ORIENTED_EDGE ( 'NONE', *, *, #335, .T. ) ;
#200 = PLANE ( 'NONE',  #212 ) ;
#201 =( LENGTH_UNIT ( ) NAMED_UNIT ( * ) SI_UNIT ( $, .METRE. ) );
#202 = DIRECTION ( 'NONE',  ( 0.000000000000000000, 0.000000000000000000, 1.000000000000000000 ) ) ;
#203 = VERTEX_POINT ( 'NONE', #322 ) ;
#204 = PLANE ( 'NONE',  #348 ) ;
#205 = AXIS2_PLACEMENT_3D ( 'NONE', #347, #311, #380 ) ;
#206 = PRODUCT_DEFINITION_CONTEXT ( 'detailed design', #389, 'design' ) ;
#207 = DIRECTION ( 'NONE',  ( 1.000000000000000000, 0.000000000000000000, 0.000000000000000000 ) ) ;
#208 = VECTOR ( 'NONE', #54, 39.37007874015748143 ) ;
#209 = EDGE_LOOP ( 'NONE', ( #219, #53, #49, #254 ) ) ;
#210 = DIRECTION ( 'NONE',  ( 0.000000000000000000, 0.000000000000000000, -1.000000000000000000 ) ) ;
#211 = LINE ( 'NONE', #9, #264 ) ;
#212 = AXIS2_PLACEMENT_3D ( 'NONE', #168, #345, #306 ) ;
#213 = DIRECTION ( 'NONE',  ( 1.000000000000000000, 0.000000000000000000, -0.000000000000000000 ) ) ;
#214 = DIRECTION ( 'NONE',  ( -0.000000000000000000, -1.000000000000000000, -0.000000000000000000 ) ) ;
#215 = ORIENTED_EDGE ( 'NONE', *, *, #355, .F. ) ;
#216 = DIRECTION ( 'NONE',  ( 0.000000000000000000, 0.000000000000000000, 1.000000000000000000 ) ) ;
#217 = VERTEX_POINT ( 'NONE', #124 ) ;
#218 = CARTESIAN_POINT ( 'NONE',  ( -7.029999999999996696, 0.000000000000000000, -9.389999999999998792 ) ) ;
#219 = ORIENTED_EDGE ( 'NONE', *, *, #448, .T. ) ;
#220 =( CONVERSION_BASED_UNIT ( 'INCH', #228 ) LENGTH_UNIT ( ) NAMED_UNIT ( #440 ) );
#221 = ORIENTED_EDGE ( 'NONE', *, *, #251, .T. ) ;
#222 = EDGE_CURVE ( 'NONE', #289, #379, #8, .T. ) ;
#223 = CARTESIAN_POINT ( 'NONE',  ( -7.029999999999996696, 0.2500000000000000000, -9.389999999999998792 ) ) ;
#224 = VERTEX_POINT ( 'NONE', #43 ) ;
#225 = LINE ( 'NONE', #60, #336 ) ;
#226 = ORIENTED_EDGE ( 'NONE', *, *, #236, .F. ) ;
#227 = VECTOR ( 'NONE', #302, 39.37007874015748143 ) ;
#228 = LENGTH_MEASURE_WITH_UNIT ( LENGTH_MEASURE( 0.02539999999999999897 ), #92 );
#229 = ORIENTED_EDGE ( 'NONE', *, *, #338, .T. ) ;
#230 = VERTEX_POINT ( 'NONE', #147 ) ;
#231 = DIRECTION ( 'NONE',  ( 1.000000000000000000, 0.000000000000000000, -1.206113904487533598E-16 ) ) ;
#232 = ORIENTED_EDGE ( 'NONE', *, *, #247, .F. ) ;
#233 = ORIENTED_EDGE ( 'NONE', *, *, #37, .T. ) ;
#234 = VECTOR ( 'NONE', #197, 39.37007874015748143 ) ;
#235 = DIRECTION ( 'NONE',  ( -1.000000000000000000, 0.000000000000000000, 0.000000000000000000 ) ) ;
#236 = EDGE_CURVE ( 'NONE', #409, #261, #188, .T. ) ;
#237 = LINE ( 'NONE', #273, #391 ) ;
#238 = STYLED_ITEM ( 'NONE', ( #63 ), #434 ) ;
#239 = CARTESIAN_POINT ( 'NONE',  ( -12.53999999999999737, 0.2500000000000000000, 9.390000000000002345 ) ) ;
#240 = VECTOR ( 'NONE', #48, 39.37007874015748854 ) ;
#241 = ORIENTED_EDGE ( 'NONE', *, *, #286, .T. ) ;
#242 =( NAMED_UNIT ( * ) SI_UNIT ( $, .STERADIAN. ) SOLID_ANGLE_UNIT ( ) );
#243 = DIRECTION ( 'NONE',  ( -0.000000000000000000, -1.000000000000000000, -0.000000000000000000 ) ) ;
#244 = DIRECTION ( 'NONE',  ( -0.8635486968584782375, 0.000000000000000000, -0.5042654540557226506 ) ) ;
#245 = COLOUR_RGB ( '',0.7921568627450980005, 0.8196078431372548767, 0.9333333333333333481 ) ;
#246 = DIRECTION ( 'NONE',  ( -0.8635486968584779044, -0.000000000000000000, -0.5042654540557228726 ) ) ;
#247 = EDGE_CURVE ( 'NONE', #359, #333, #431, .T. ) ;
#248 = CARTESIAN_POINT ( 'NONE',  ( -12.53999999999999737, 0.2500000000000000000, -9.389999999999998792 ) ) ;
#249 = ORIENTED_EDGE ( 'NONE', *, *, #81, .F. ) ;
#250 = DIRECTION ( 'NONE',  ( 0.8635486968584794587, 0.000000000000000000, -0.5042654540557204301 ) ) ;
#251 = EDGE_CURVE ( 'NONE', #261, #13, #425, .T. ) ;
#252 = ORIENTED_EDGE ( 'NONE', *, *, #222, .T. ) ;
#253 = DIRECTION ( 'NONE',  ( -0.8635486968584794587, -0.000000000000000000, 0.5042654540557204301 ) ) ;
#254 = ORIENTED_EDGE ( 'NONE', *, *, #308, .T. ) ;
#255 = VECTOR ( 'NONE', #284, 39.37007874015748143 ) ;
#256 =( NAMED_UNIT ( * ) PLANE_ANGLE_UNIT ( ) SI_UNIT ( $, .RADIAN. ) );
#257 = ORIENTED_EDGE ( 'NONE', *, *, #97, .T. ) ;
#258 = FACE_OUTER_BOUND ( 'NONE', #96, .T. ) ;
#259 = LINE ( 'NONE', #403, #384 ) ;
#260 = CARTESIAN_POINT ( 'NONE',  ( -4.530000000000002913, 0.000000000000000000, 7.930136022756446579 ) ) ;
#261 = VERTEX_POINT ( 'NONE', #184 ) ;
#262 = APPLICATION_CONTEXT ( 'automotive_design' ) ;
#263 = LINE ( 'NONE', #133, #318 ) ;
#264 = VECTOR ( 'NONE', #77, 39.37007874015748143 ) ;
#265 = EDGE_LOOP ( 'NONE', ( #395, #249, #120, #199 ) ) ;
#266 = CLOSED_SHELL ( 'NONE', ( #327, #344, #10, #441, #183, #130, #404, #437, #194, #173, #85, #162, #74, #115 ) ) ;
#267 = EDGE_CURVE ( 'NONE', #271, #203, #304, .T. ) ;
#268 = EDGE_LOOP ( 'NONE', ( #59, #323, #55, #296, #326, #363, #122, #257, #393, #84, #157, #88 ) ) ;
#269 = SURFACE_STYLE_FILL_AREA ( #89 ) ;
#270 = ORIENTED_EDGE ( 'NONE', *, *, #413, .F. ) ;
#271 = VERTEX_POINT ( 'NONE', #362 ) ;
#272 =( CONVERSION_BASED_UNIT ( 'INCH', #138 ) LENGTH_UNIT ( ) NAMED_UNIT ( #91 ) );
#273 = CARTESIAN_POINT ( 'NONE',  ( 7.030000000000001137, 0.000000000000000000, 9.390000000000002345 ) ) ;
#274 = DIRECTION ( 'NONE',  ( 0.000000000000000000, 0.000000000000000000, 1.000000000000000000 ) ) ;
#275 = DIRECTION ( 'NONE',  ( -1.000000000000000000, -0.000000000000000000, 1.206113904487532858E-16 ) ) ;
#276 = UNCERTAINTY_MEASURE_WITH_UNIT (LENGTH_MEASURE( 1.000000000000000082E-05 ), #272, 'distance_accuracy_value', 'NONE');
#277 = CARTESIAN_POINT ( 'NONE',  ( 4.529999999999996696, 0.2500000000000000000, -7.930136022756449243 ) ) ;
#278 = ORIENTED_EDGE ( 'NONE', *, *, #321, .F. ) ;
#279 = FACE_OUTER_BOUND ( 'NONE', #265, .T. ) ;
#280 = LINE ( 'NONE', #172, #50 ) ;
#281 = DIRECTION ( 'NONE',  ( -1.000000000000000000, -0.000000000000000000, -0.000000000000000000 ) ) ;
#282 = AXIS2_PLACEMENT_3D ( 'NONE', #103, #274, #378 ) ;
#283 = EDGE_CURVE ( 'NONE', #70, #217, #392, .T. ) ;
#284 = DIRECTION ( 'NONE',  ( -0.000000000000000000, -1.000000000000000000, -0.000000000000000000 ) ) ;
#285 = ORIENTED_EDGE ( 'NONE', *, *, #108, .F. ) ;
#286 = EDGE_CURVE ( 'NONE', #142, #13, #290, .T. ) ;
#287 = VECTOR ( 'NONE', #22, 39.37007874015748143 ) ;
#288 = CARTESIAN_POINT ( 'NONE',  ( 7.030000000000001137, 0.2500000000000000000, 9.390000000000002345 ) ) ;
#289 = VERTEX_POINT ( 'NONE', #328 ) ;
#290 = LINE ( 'NONE', #45, #428 ) ;
#291 = ORIENTED_EDGE ( 'NONE', *, *, #236, .T. ) ;
#292 = CARTESIAN_POINT ( 'NONE',  ( 7.030000000000001137, 0.2500000000000000000, 9.390000000000002345 ) ) ;
#293 = ORIENTED_EDGE ( 'NONE', *, *, #373, .F. ) ;
#294 = VECTOR ( 'NONE', #319, 39.37007874015748143 ) ;
#295 = CARTESIAN_POINT ( 'NONE',  ( 12.54000000000000092, 0.000000000000000000, -9.389999999999998792 ) ) ;
#296 = ORIENTED_EDGE ( 'NONE', *, *, #334, .T. ) ;
#297 = CARTESIAN_POINT ( 'NONE',  ( 4.529999999999996696, 0.000000000000000000, -7.930136022756449243 ) ) ;
#298 =( GEOMETRIC_REPRESENTATION_CONTEXT ( 3 ) GLOBAL_UNCERTAINTY_ASSIGNED_CONTEXT ( ( #314 ) ) GLOBAL_UNIT_ASSIGNED_CONTEXT ( ( #220, #256, #399 ) ) REPRESENTATION_CONTEXT ( 'NONE', 'WORKASPACE' ) );
#299 = LINE ( 'NONE', #166, #416 ) ;
#300 = EDGE_LOOP ( 'NONE', ( #412, #293, #17, #365 ) ) ;
#301 = LINE ( 'NONE', #371, #234 ) ;
#302 = DIRECTION ( 'NONE',  ( -1.000000000000000000, -0.000000000000000000, 1.206113904487532858E-16 ) ) ;
#303 = VECTOR ( 'NONE', #111, 39.37007874015748143 ) ;
#304 = LINE ( 'NONE', #248, #171 ) ;
#305 = CARTESIAN_POINT ( 'NONE',  ( -7.029999999999996696, 0.000000000000000000, 9.390000000000002345 ) ) ;
#306 = DIRECTION ( 'NONE',  ( 1.000000000000000000, 0.000000000000000000, -0.000000000000000000 ) ) ;
#307 = AXIS2_PLACEMENT_3D ( 'NONE', #364, #190, #438 ) ;
#308 = EDGE_CURVE ( 'NONE', #271, #109, #18, .T. ) ;
#309 = PLANE ( 'NONE',  #361 ) ;
#310 = VECTOR ( 'NONE', #93, 39.37007874015748143 ) ;
#311 = DIRECTION ( 'NONE',  ( -0.000000000000000000, 1.000000000000000000, 0.000000000000000000 ) ) ;
#312 = ORIENTED_EDGE ( 'NONE', *, *, #78, .T. ) ;
#313 = EDGE_CURVE ( 'NONE', #203, #150, #179, .T. ) ;
#314 = UNCERTAINTY_MEASURE_WITH_UNIT (LENGTH_MEASURE( 1.000000000000000082E-05 ), #220, 'distance_accuracy_value', 'NONE');
#315 = LINE ( 'NONE', #139, #15 ) ;
#316 = ORIENTED_EDGE ( 'NONE', *, *, #453, .T. ) ;
#317 = DIRECTION ( 'NONE',  ( 0.5042654540557226506, 0.000000000000000000, -0.8635486968584782375 ) ) ;
#318 = VECTOR ( 'NONE', #339, 39.37007874015748143 ) ;
#319 = DIRECTION ( 'NONE',  ( -0.000000000000000000, -1.000000000000000000, -0.000000000000000000 ) ) ;
#320 = DIRECTION ( 'NONE',  ( -0.000000000000000000, -1.000000000000000000, -0.000000000000000000 ) ) ;
#321 = EDGE_CURVE ( 'NONE', #217, #109, #86, .T. ) ;
#322 = CARTESIAN_POINT ( 'NONE',  ( -12.53999999999999737, 0.2500000000000000000, -9.389999999999998792 ) ) ;
#323 = ORIENTED_EDGE ( 'NONE', *, *, #47, .T. ) ;
#324 = AXIS2_PLACEMENT_3D ( 'NONE', #104, #235, #202 ) ;
#325 = DIRECTION ( 'NONE',  ( -1.000000000000000000, -0.000000000000000000, -0.000000000000000000 ) ) ;
#326 = ORIENTED_EDGE ( 'NONE', *, *, #267, .T. ) ;
#327 = ADVANCED_FACE ( 'NONE', ( #152 ), #79, .F. ) ;
#328 = CARTESIAN_POINT ( 'NONE',  ( 4.529999999999996696, 0.000000000000000000, 7.930136022756444802 ) ) ;
#329 = ORIENTED_EDGE ( 'NONE', *, *, #222, .F. ) ;
#330 = ORIENTED_EDGE ( 'NONE', *, *, #338, .F. ) ;
#331 = AXIS2_PLACEMENT_3D ( 'NONE', #61, #451, #135 ) ;
#332 = DIRECTION ( 'NONE',  ( -0.000000000000000000, -1.000000000000000000, -0.000000000000000000 ) ) ;
#333 = VERTEX_POINT ( 'NONE', #292 ) ;
#334 = EDGE_CURVE ( 'NONE', #70, #271, #433, .T. ) ;
#335 = EDGE_CURVE ( 'NONE', #27, #87, #211, .T. ) ;
#336 = VECTOR ( 'NONE', #32, 39.37007874015748143 ) ;
#337 = ORIENTED_EDGE ( 'NONE', *, *, #159, .T. ) ;
#338 = EDGE_CURVE ( 'NONE', #333, #379, #149, .T. ) ;
#339 = DIRECTION ( 'NONE',  ( -1.000000000000000000, -0.000000000000000000, -0.000000000000000000 ) ) ;
#340 = VERTEX_POINT ( 'NONE', #80 ) ;
#341 = DIRECTION ( 'NONE',  ( -0.000000000000000000, -1.000000000000000000, -0.000000000000000000 ) ) ;
#342 = CARTESIAN_POINT ( 'NONE',  ( -4.530000000000007354, 0.2500000000000000000, -7.930136022756448355 ) ) ;
#343 =( NAMED_UNIT ( * ) PLANE_ANGLE_UNIT ( ) SI_UNIT ( $, .RADIAN. ) );
#344 = ADVANCED_FACE ( 'NONE', ( #426 ), #356, .F. ) ;
#345 = DIRECTION ( 'NONE',  ( 0.000000000000000000, 0.000000000000000000, 1.000000000000000000 ) ) ;
#346 = DIRECTION ( 'NONE',  ( -1.000000000000000000, 0.000000000000000000, -0.000000000000000000 ) ) ;
#347 = CARTESIAN_POINT ( 'NONE',  ( 0.000000000000000000, 0.000000000000000000, 0.000000000000000000 ) ) ;
#348 = AXIS2_PLACEMENT_3D ( 'NONE', #2, #136, #6 ) ;
#349 = LINE ( 'NONE', #141, #137 ) ;
#350 = VERTEX_POINT ( 'NONE', #394 ) ;
#351 = CARTESIAN_POINT ( 'NONE',  ( -12.53999999999999737, 0.000000000000000000, -9.389999999999998792 ) ) ;
#352 = CARTESIAN_POINT ( 'NONE',  ( 12.54000000000000092, 0.000000000000000000, 9.390000000000002345 ) ) ;
#353 = CARTESIAN_POINT ( 'NONE',  ( 7.030000000000001137, 0.000000000000000000, -9.389999999999998792 ) ) ;
#354 = DIRECTION ( 'NONE',  ( -1.000000000000000000, 0.000000000000000000, 1.206113904487533598E-16 ) ) ;
#355 = EDGE_CURVE ( 'NONE', #224, #340, #263, .T. ) ;
#356 = PLANE ( 'NONE',  #65 ) ;
#357 = ORIENTED_EDGE ( 'NONE', *, *, #420, .T. ) ;
#358 = CARTESIAN_POINT ( 'NONE',  ( -4.530000000000002913, 0.2500000000000000000, 7.930136022756446579 ) ) ;
#359 = VERTEX_POINT ( 'NONE', #408 ) ;
#360 = EDGE_CURVE ( 'NONE', #359, #289, #21, .T. ) ;
#361 = AXIS2_PLACEMENT_3D ( 'NONE', #178, #317, #244 ) ;
#362 = CARTESIAN_POINT ( 'NONE',  ( -7.029999999999996696, 0.2500000000000000000, -9.389999999999998792 ) ) ;
#363 = ORIENTED_EDGE ( 'NONE', *, *, #68, .T. ) ;
#364 = CARTESIAN_POINT ( 'NONE',  ( -7.029999999999996696, 0.2500000000000000000, 9.390000000000002345 ) ) ;
#365 = ORIENTED_EDGE ( 'NONE', *, *, #313, .T. ) ;
#366 = VECTOR ( 'NONE', #101, 39.37007874015748143 ) ;
#367 = DIRECTION ( 'NONE',  ( -0.5042654540557229836, 0.000000000000000000, 0.8635486968584780154 ) ) ;
#368 = ORIENTED_EDGE ( 'NONE', *, *, #81, .T. ) ;
#369 = PRODUCT_RELATED_PRODUCT_CATEGORY ( 'part', '', ( #187 ) ) ;
#370 = VECTOR ( 'NONE', #253, 39.37007874015748143 ) ;
#371 = CARTESIAN_POINT ( 'NONE',  ( -12.53999999999999737, 0.000000000000000000, 9.390000000000002345 ) ) ;
#372 = CARTESIAN_POINT ( 'NONE',  ( -4.530000000000007354, 0.2500000000000000000, -7.930136022756448355 ) ) ;
#373 = EDGE_CURVE ( 'NONE', #82, #230, #299, .T. ) ;
#374 = CARTESIAN_POINT ( 'NONE',  ( 4.529999999999996696, 0.2500000000000000000, 7.930136022756444802 ) ) ;
#375 = FACE_OUTER_BOUND ( 'NONE', #410, .T. ) ;
#376 = SURFACE_SIDE_STYLE ('',( #269 ) ) ;
#377 = ORIENTED_EDGE ( 'NONE', *, *, #1, .F. ) ;
#378 = DIRECTION ( 'NONE',  ( 1.000000000000000000, 0.000000000000000000, 0.000000000000000000 ) ) ;
#379 = VERTEX_POINT ( 'NONE', #29 ) ;
#380 = DIRECTION ( 'NONE',  ( 0.000000000000000000, -0.000000000000000000, 1.000000000000000000 ) ) ;
#381 = PRODUCT_DEFINITION_FORMATION_WITH_SPECIFIED_SOURCE ( 'ANY', '', #187, .NOT_KNOWN. ) ;
#382 = DIRECTION ( 'NONE',  ( 0.000000000000000000, 0.000000000000000000, -1.000000000000000000 ) ) ;
#383 = DIRECTION ( 'NONE',  ( 0.000000000000000000, 0.000000000000000000, -1.000000000000000000 ) ) ;
#384 = VECTOR ( 'NONE', #90, 39.37007874015748143 ) ;
#385 = VECTOR ( 'NONE', #231, 39.37007874015748143 ) ;
#386 = ORIENTED_EDGE ( 'NONE', *, *, #420, .F. ) ;
#387 = CARTESIAN_POINT ( 'NONE',  ( -7.029999999999996696, 0.2500000000000000000, 9.390000000000002345 ) ) ;
#388 = CARTESIAN_POINT ( 'NONE',  ( -7.029999999999996696, 0.2500000000000000000, -9.389999999999998792 ) ) ;
#389 = APPLICATION_CONTEXT ( 'automotive_design' ) ;
#390 = CARTESIAN_POINT ( 'NONE',  ( 7.030000000000001137, 0.2500000000000000000, -9.389999999999998792 ) ) ;
#391 = VECTOR ( 'NONE', #423, 39.37007874015748143 ) ;
#392 = LINE ( 'NONE', #83, #31 ) ;
#393 = ORIENTED_EDGE ( 'NONE', *, *, #401, .T. ) ;
#394 = CARTESIAN_POINT ( 'NONE',  ( -7.029999999999996696, 0.2500000000000000000, 9.390000000000002345 ) ) ;
#395 = ORIENTED_EDGE ( 'NONE', *, *, #148, .T. ) ;
#396 = EDGE_CURVE ( 'NONE', #27, #224, #225, .T. ) ;
#397 = CARTESIAN_POINT ( 'NONE',  ( 4.529999999999996696, 0.2500000000000000000, 7.930136022756444802 ) ) ;
#398 = EDGE_LOOP ( 'NONE', ( #252, #330, #232, #132 ) ) ;
#399 =( NAMED_UNIT ( * ) SI_UNIT ( $, .STERADIAN. ) SOLID_ANGLE_UNIT ( ) );
#400 = ORIENTED_EDGE ( 'NONE', *, *, #251, .F. ) ;
#401 = EDGE_CURVE ( 'NONE', #435, #359, #164, .T. ) ;
#402 = PLANE ( 'NONE',  #62 ) ;
#403 = CARTESIAN_POINT ( 'NONE',  ( -4.530000000000002913, 0.2500000000000000000, 7.930136022756446579 ) ) ;
#404 = ADVANCED_FACE ( 'NONE', ( #442 ), #192, .F. ) ;
#405 = SURFACE_STYLE_USAGE ( .BOTH. , #376 ) ;
#406 = CARTESIAN_POINT ( 'NONE',  ( -12.53999999999999737, 0.2500000000000000000, 9.390000000000002345 ) ) ;
#407 = AXIS2_PLACEMENT_3D ( 'NONE', #38, #382, #346 ) ;
#408 = CARTESIAN_POINT ( 'NONE',  ( 4.529999999999996696, 0.2500000000000000000, 7.930136022756444802 ) ) ;
#409 = VERTEX_POINT ( 'NONE', #295 ) ;
#410 = EDGE_LOOP ( 'NONE', ( #186, #75, #377, #241 ) ) ;
#411 = CARTESIAN_POINT ( 'NONE',  ( -12.53999999999999737, 0.2500000000000000000, 9.390000000000002345 ) ) ;
#412 = ORIENTED_EDGE ( 'NONE', *, *, #413, .T. ) ;
#413 = EDGE_CURVE ( 'NONE', #150, #230, #301, .T. ) ;
#414 = DIRECTION ( 'NONE',  ( -1.000000000000000000, -0.000000000000000000, -0.000000000000000000 ) ) ;
#415 = ORIENTED_EDGE ( 'NONE', *, *, #418, .F. ) ;
#416 = VECTOR ( 'NONE', #160, 39.37007874015748143 ) ;
#417 = PLANE ( 'NONE',  #324 ) ;
#418 = EDGE_CURVE ( 'NONE', #340, #261, #126, .T. ) ;
#419 = FACE_OUTER_BOUND ( 'NONE', #268, .T. ) ;
#420 = EDGE_CURVE ( 'NONE', #189, #289, #447, .T. ) ;
#421 = LINE ( 'NONE', #352, #110 ) ;
#422 = EDGE_LOOP ( 'NONE', ( #291, #415, #215, #368 ) ) ;
#423 = DIRECTION ( 'NONE',  ( 1.000000000000000000, 0.000000000000000000, 0.000000000000000000 ) ) ;
#424 = FACE_OUTER_BOUND ( 'NONE', #300, .T. ) ;
#425 = LINE ( 'NONE', #121, #370 ) ;
#426 = FACE_OUTER_BOUND ( 'NONE', #19, .T. ) ;
#427 = EDGE_LOOP ( 'NONE', ( #316, #134, #198, #176 ) ) ;
#428 = VECTOR ( 'NONE', #16, 39.37007874015748143 ) ;
#429 = CARTESIAN_POINT ( 'NONE',  ( 4.529999999999996696, 0.2500000000000000000, -7.930136022756449243 ) ) ;
#430 = ORIENTED_EDGE ( 'NONE', *, *, #286, .F. ) ;
#431 = LINE ( 'NONE', #397, #240 ) ;
#432 = ORIENTED_EDGE ( 'NONE', *, *, #321, .T. ) ;
#433 = LINE ( 'NONE', #388, #151 ) ;
#434 = MANIFOLD_SOLID_BREP ( 'Boss-Extrude1', #266 ) ;
#435 = VERTEX_POINT ( 'NONE', #444 ) ;
#436 = VECTOR ( 'NONE', #341, 39.37007874015748143 ) ;
#437 = ADVANCED_FACE ( 'NONE', ( #131 ), #450, .F. ) ;
#438 = DIRECTION ( 'NONE',  ( -0.8635486968584774603, 0.000000000000000000, 0.5042654540557239828 ) ) ;
#439 = ORIENTED_EDGE ( 'NONE', *, *, #123, .F. ) ;
#440 = DIMENSIONAL_EXPONENTS ( 1.000000000000000000, 0.000000000000000000, 0.000000000000000000, 0.000000000000000000, 0.000000000000000000, 0.000000000000000000, 0.000000000000000000 ) ;
#441 = ADVANCED_FACE ( 'NONE', ( #258 ), #402, .F. ) ;
#442 = FACE_OUTER_BOUND ( 'NONE', #155, .T. ) ;
#443 = ORIENTED_EDGE ( 'NONE', *, *, #159, .F. ) ;
#444 = CARTESIAN_POINT ( 'NONE',  ( -4.530000000000002913, 0.2500000000000000000, 7.930136022756446579 ) ) ;
#445 = ORIENTED_EDGE ( 'NONE', *, *, #308, .F. ) ;
#446 = ORIENTED_EDGE ( 'NONE', *, *, #448, .F. ) ;
#447 = LINE ( 'NONE', #260, #385 ) ;
#448 = EDGE_CURVE ( 'NONE', #109, #150, #454, .T. ) ;
#449 = ORIENTED_EDGE ( 'NONE', *, *, #373, .T. ) ;
#450 = PLANE ( 'NONE',  #307 ) ;
#451 = DIRECTION ( 'NONE',  ( 1.206113904487532858E-16, -0.000000000000000000, 1.000000000000000000 ) ) ;
#452 = PLANE ( 'NONE',  #407 ) ;
#453 = EDGE_CURVE ( 'NONE', #5, #189, #174, .T. ) ;
#454 = LINE ( 'NONE', #351, #113 ) ;
#455 = VECTOR ( 'NONE', #325, 39.37007874015748143 ) ;
#456 = VECTOR ( 'NONE', #332, 39.37007874015748143 ) ;
#457 = FACE_OUTER_BOUND ( 'NONE', #153, .T. ) ;
ENDSEC;
END-ISO-10303-21;
